<?xml version="1.0" encoding="utf-8"?>
<!-- Generator: Adobe Illustrator 24.1.0, SVG Export Plug-In . SVG Version: 6.00 Build 0)  -->
<svg version="1.1" id="f30b8817-e1bf-44da-9e46-2bc3b6e9971f"
	 xmlns="http://www.w3.org/2000/svg" xmlns:xlink="http://www.w3.org/1999/xlink" x="0px" y="0px" viewBox="0 0 841.5 739"
	 style="enable-background:new 0 0 841.5 739;" xml:space="preserve">
<style type="text/css">
	.st0{fill:#F5F5F5;}
	.st1{opacity:0.5;}
	.st2{fill:#3AD29F;}
	.st3{fill:#DBE8FC;}
	.st4{fill:#FFFFFF;}
	.st5{opacity:3.000000e-02;enable-background:new    ;}
	.st6{fill:#FAFAFA;}
	.st7{fill:#CD7F32;}
	.st8{opacity:5.000000e-02;enable-background:new    ;}
</style>
<path class="st0" d="M768.4,424.5c0.8,0,1.5-0.7,1.4-1.6c0-0.8-0.7-1.4-1.4-1.4c-0.8,0-1.5,0.7-1.4,1.6
	C766.9,423.8,767.6,424.5,768.4,424.5z"/>
<g class="st1">
	<rect x="33.4" y="218" class="st2" width="3" height="17"/>
	<rect x="26.4" y="225" class="st2" width="17" height="3"/>
</g>
<g class="st1">
	<rect x="594.4" y="722" class="st2" width="3" height="17"/>
	<rect x="587.4" y="729" class="st2" width="17" height="3"/>
</g>
<path class="st3" d="M708,297.5l-13.7-77.8l-282.6,49.9L465.6,575c5.4,30.4,34.3,50.7,64.7,45.3l0,0l172.6-30.5
	c30.4-5.4,50.7-34.3,45.3-64.7l0,0l-6.5-36.6c52.8-9.3,88-59.6,78.7-112.4C811.1,323.4,760.8,288.2,708,297.5L708,297.5L708,297.5z
	 M737.7,465.9L712,320.2c40.2-7.1,78.6,19.8,85.7,60C804.9,420.4,778,458.8,737.7,465.9L737.7,465.9z"/>
<rect x="452.1" y="253.2" transform="matrix(0.9848 -0.1737 0.1737 0.9848 -47.411 102.6318)" class="st4" width="221" height="138"/>
<path class="st5" d="M708.2,213c-6.4-22-78.4-20.3-160.9,3.7s-144.1,61.3-137.7,83.3c3.9,13.4,32.2,18,72.4,14.1
	c-3.3,13.9,5.3,27.9,19.2,31.2c10.6,2.5,21.7-1.9,27.7-11c9.7,19.6,25.5,31.4,39.1,27.4c14.9-4.3,21.9-26,17.3-50.4
	c7.5,5.9,15.9,8.3,23.8,6c9.6-2.8,16.1-12,18.5-24.1c6,3.2,12.4,4.3,18.4,2.5c7.7-2.2,13.4-8.7,16.6-17.4c6.4,17.3,21,28,33.9,24.2
	c13.7-4,20.3-22.8,14.7-42.1c-3-10.2-8.8-18.5-15.7-23.4C705.6,228.3,710.3,219.9,708.2,213z"/>
<path class="st6" d="M705.3,203.1c-6.4-22-78.4-20.3-160.9,3.7s-144.1,61.3-137.7,83.3c3.9,13.4,32.2,18,72.4,14.1
	c-3.3,13.9,5.3,27.9,19.2,31.2c10.6,2.5,21.7-1.9,27.7-11c9.7,19.6,25.5,31.4,39.1,27.4c14.9-4.3,21.9-26,17.3-50.4
	c7.5,5.9,15.9,8.3,23.8,6c9.6-2.8,16.1-12,18.5-24.1c6,3.2,12.4,4.3,18.4,2.5c7.7-2.2,13.4-8.7,16.6-17.4c6.4,17.3,21,28,33.9,24.2
	c13.7-4,20.3-22.8,14.7-42.1c-3-10.2-8.8-18.5-15.7-23.4C702.7,218.3,707.4,210,705.3,203.1z"/>
<path class="st7" d="M454.1,343.3c0,0,48-21.7,98.5-0.1s119.2-38.3,119.2-38.3l11.6,65.9L531.5,419l-44.4-4.3L454.1,343.3z"/>
<path class="st8" d="M454.1,343.3c0,0,48-21.7,98.5-0.1s119.2-38.3,119.2-38.3l11.6,65.9L531.5,419l-44.4-4.3L454.1,343.3z"/>
<path class="st7" d="M714.3,546.2l-217.6,38.4l-42.6-241.3c72.9,39.1,145.5,26.3,217.6-38.4L714.3,546.2z"/>
<path class="st6" d="M493.6,396.6c-4.3,1.3-2.4,8,2,6.7C499.9,402,498,395.3,493.6,396.6z"/>
<path class="st6" d="M591.8,532.6c-4.3,1.3-2.4,8,2,6.7C598,538.1,596.1,531.4,591.8,532.6z"/>
<path class="st6" d="M542.9,480.3c-4.3,1.3-2.4,8,2,6.7C549.2,485.8,547.3,479,542.9,480.3z"/>
<path class="st6" d="M579.4,422.1c-4.3,1.3-2.4,8,2,6.7C585.7,427.5,583.7,420.8,579.4,422.1z"/>
<path class="st6" d="M666.5,386.4c-4.3,1.3-2.4,8,2,6.7C672.8,391.9,670.8,385.1,666.5,386.4z"/>
<path class="st3" d="M1.5,277.2C-7.8,330,27.4,380.3,80.2,389.6l-6.5,36.6c-5.4,30.4,14.9,59.3,45.3,64.7l0,0l172.6,30.5
	c30.4,5.4,59.3-14.9,64.7-45.3l0,0l53.9-305.4l-282.6-49.9l-13.7,77.8C61.1,189.2,10.8,224.4,1.5,277.2z M24.1,281.2
	c7.1-40.2,45.5-67.1,85.7-60c0,0,0,0,0,0L84.2,366.9C43.9,359.8,17,321.4,24.1,281.2L24.1,281.2z"/>
<rect x="190.3" y="112.7" transform="matrix(0.1737 -0.9848 0.9848 0.1737 -5.5146 439.7469)" class="st4" width="138" height="221"/>
<path class="st5" d="M113.7,114c6.4-22,78.4-20.3,160.9,3.7s144.1,61.3,137.7,83.3c-3.9,13.4-32.2,18-72.4,14.1
	c3.3,13.9-5.3,27.9-19.2,31.2c-10.6,2.5-21.7-1.9-27.7-11c-9.7,19.6-25.5,31.4-39.1,27.4c-14.9-4.3-21.9-26-17.3-50.4
	c-7.5,5.9-15.9,8.3-23.8,6c-9.6-2.8-16.1-12-18.5-24.1c-6,3.2-12.4,4.3-18.4,2.5c-7.7-2.2-13.4-8.7-16.6-17.4
	c-6.4,17.3-21,28-33.9,24.2c-13.7-4-20.3-22.8-14.7-42.1c3-10.2,8.8-18.5,15.7-23.4C116.3,129.3,111.6,120.9,113.7,114z"/>
<path class="st6" d="M116.6,104.1c6.4-22,78.4-20.3,160.9,3.7s144.1,61.3,137.7,83.3c-3.9,13.4-32.2,18-72.4,14.1
	c3.3,13.9-5.3,27.9-19.2,31.2c-10.6,2.5-21.7-1.9-27.7-11c-9.7,19.6-25.5,31.4-39.1,27.4c-14.9-4.3-21.9-26-17.3-50.4
	c-7.5,5.9-15.9,8.3-23.8,6c-9.6-2.8-16.1-12-18.5-24.1c-6,3.2-12.4,4.3-18.4,2.5c-7.7-2.2-13.4-8.7-16.6-17.4
	c-6.4,17.3-21,28-33.9,24.2c-13.7-4-20.3-22.8-14.7-42.1c3-10.2,8.8-18.5,15.7-23.4C119.2,119.3,114.5,111,116.6,104.1z"/>
<path class="st7" d="M367.8,244.3c0,0-48-21.7-98.5-0.1s-119.2-38.3-119.2-38.3l-11.6,65.9L290.4,320l44.4-4.3L367.8,244.3z"/>
<path class="st8" d="M367.8,244.3c0,0-48-21.7-98.5-0.1s-119.2-38.3-119.2-38.3l-11.6,65.9L290.4,320l44.4-4.3L367.8,244.3z"/>
<path class="st7" d="M107.6,447.2l217.6,38.4l42.6-241.3c-72.9,39.1-145.5,26.3-217.6-38.4L107.6,447.2z"/>
<path class="st6" d="M328.3,297.6c4.3,1.3,2.4,8-2,6.7C322,303,323.9,296.3,328.3,297.6z"/>
<path class="st6" d="M230.1,433.6c4.3,1.3,2.4,8-2,6.7C223.9,439.1,225.8,432.4,230.1,433.6z"/>
<path class="st6" d="M279,381.3c4.3,1.3,2.4,8-2,6.7C272.7,386.8,274.6,380,279,381.3z"/>
<path class="st6" d="M242.5,323.1c4.3,1.3,2.4,8-2,6.7C236.2,328.5,238.2,321.8,242.5,323.1z"/>
<path class="st6" d="M155.4,287.4c4.3,1.3,2.4,8-2,6.7C149.1,292.9,151.1,286.1,155.4,287.4z"/>
</svg>
