<svg id="Flat" height="512" viewBox="0 0 512 512" width="512" xmlns="http://www.w3.org/2000/svg"><path d="m344 392h48a24 24 0 0 0 24-24v-96a24 24 0 0 0 -24-24h-48v-32h60a44 44 0 0 1 44 44v120a44 44 0 0 1 -44 44h-60z" fill="#e3e4e2"/><path d="m344 216h32v32h-32z" fill="#c9c9c8"/><path d="m344 392h32v32h-32z" fill="#c9c9c8"/><path d="m360 152v312a24.006 24.006 0 0 1 -24 24h-208a24.006 24.006 0 0 1 -24-24v-312z" fill="#f7ce2c"/><path d="m360 152v48h-68a19.994 19.994 0 0 0 -20 20v80a20 20 0 0 1 -40 0v-40a20 20 0 0 0 -40 0v80a20 20 0 0 1 -40 0v-120a19.994 19.994 0 0 0 -20-20h-11.24a49.1 49.1 0 0 1 -16.76-2.94v-45.06z" fill="#e3be21"/><path d="m360 432v32a24.006 24.006 0 0 1 -24 24h-208a24.006 24.006 0 0 1 -24-24v-32l32 16h192z" fill="#e3e4e2"/><rect fill="#f3f1f2" height="152" rx="8" width="16" x="312" y="224"/><rect fill="#f3f1f2" height="16" rx="8" width="16" x="312" y="392"/><path d="m360 184a48 48 0 1 0 -13.39-94.093 48.04 48.04 0 0 0 -35.184-25.333 48 48 0 0 0 -95.426 7.426c0 .931.033 1.853.085 2.771a47.9 47.9 0 0 0 -24.627-2 48 48 0 1 0 -94.685 15.771 48.011 48.011 0 0 0 -40.773 47.541c.045 26.602 22.162 47.917 48.764 47.917h11.236a20 20 0 0 1 20 20v120a20 20 0 0 0 20 20 20 20 0 0 0 20-20v-80a20 20 0 0 1 20-20 20 20 0 0 1 20 20v40a20 20 0 0 0 20 20 20 20 0 0 0 20-20v-80a20 20 0 0 1 20-20z" fill="#f7e469"/><g fill="#f9d644"><path d="m144 88h16v16h-16z"/><path d="m256 72h16v16h-16z"/><path d="m288 144h16v16h-16z"/><path d="m208 120h16v16h-16z"/><path d="m192 176h16v16h-16z"/><path d="m344 120h16v16h-16z"/><path d="m112 136h16v16h-16z"/></g></svg>