<?xml version="1.0" encoding="utf-8"?>
<!-- Generator: Adobe Illustrator 24.1.0, SVG Export Plug-In . SVG Version: 6.00 Build 0)  -->
<svg version="1.1" id="Calque_1" xmlns="http://www.w3.org/2000/svg" xmlns:xlink="http://www.w3.org/1999/xlink" x="0px" y="0px"
	 viewBox="0 0 500 500" style="enable-background:new 0 0 500 500;" xml:space="preserve">
<style type="text/css">
	.st0{fill:#FFCA28;}
	.st1{fill:#212121;}
	.st2{font-family:'Roboto-Bold';}
	.st3{font-size:15.8901px;}
	.st4{letter-spacing:3;}
	.st5{font-family:'Roboto-Light';}
	.st6{font-size:10.2675px;}
	.st7{letter-spacing:2;}
	.st8{fill:#582900;}
</style>
<g>
	<path class="st0" d="M354.1,252.4v-17.9c-3.4,0.1-6.2-2.6-6.3-5.9H152.3c-0.1,3.4-2.9,6.1-6.3,5.9v17.9c3.4-0.1,6.2,2.6,6.3,6
		c0,0,0,0,0,0h195.5C347.8,255,350.7,252.3,354.1,252.4C354.1,252.4,354.1,252.4,354.1,252.4z"/>
	<text transform="matrix(1 0 0 1 163.23 249.08)" class="st1 st2 st3 st4">GIN</text>
	<text transform="matrix(1 0 0 1 197.28 249.08)" class="st1 st2 st3 st4">O</text>
	<text transform="matrix(1 0 0 1 211.55 249.08)" class="st1 st2 st3 st4">’</text>
	<text transform="matrix(1 0 0 1 217.89 249.08)" class="st1 st2 st3 st4">S</text>
	<g>
		<g>
			<text transform="matrix(0.6497 0.7602 -0.7602 0.6497 182.9802 287.9001)" class="st0 st5 st6 st7">B</text>
			<text transform="matrix(0.745 0.6671 -0.6671 0.745 190.6602 296.4099)" class="st0 st5 st6 st7">R</text>
			<text transform="matrix(0.8243 0.5661 -0.5661 0.8243 199.3499 303.7698)" class="st0 st5 st6 st7">E</text>
			<text transform="matrix(0.9029 0.4299 -0.4299 0.9029 208.5698 309.85)" class="st0 st5 st6 st7">W</text>
			<text transform="matrix(0.96 0.28 -0.28 0.96 222.7399 316.0101)" class="st0 st5 st6 st7">P</text>
			<text transform="matrix(0.9899 0.1418 -0.1418 0.9899 233.75 318.95)" class="st0 st5 st6 st7">U</text>
			<text transform="matrix(0.9998 1.999600e-02 -1.999600e-02 0.9998 246.4508 320.3407)" class="st0 st5 st6 st7">B</text>
			<text transform="matrix(0.9751 -0.2219 0.2219 0.9751 264.85 319.21)" class="st0 st5 st6 st7">D</text>
			<text transform="matrix(0.9296 -0.3686 0.3686 0.9296 277.5601 315.9401)" class="st0 st5 st6 st7">U</text>
			<text transform="matrix(0.829 -0.5593 0.5593 0.829 295.3802 307.3796)" class="st0 st5 st6 st7">S</text>
			<text transform="matrix(0.7413 -0.6712 0.6712 0.7413 304.2 301.0502)" class="st0 st5 st6 st7">U</text>
			<text transform="matrix(0.6283 -0.7779 0.7779 0.6283 313.5093 292.1402)" class="st0 st5 st6 st7">D</text>
		</g>
	</g>
	<g>
		<text transform="matrix(1 0 0 1 190.63 202.87)" class="st0 st5 st6 st7">ESTB</text>
		<text transform="matrix(1 0 0 1 281.03 202.87)" class="st0 st5 st6 st7">2020</text>
	</g>
	<g>
		<path class="st1" d="M345.9,243.5c0.1,2-1.4,3.7-3.4,3.8c-2,0.1-3.7-1.4-3.8-3.4c-0.1-2,1.4-3.7,3.4-3.8c0.1,0,0.1,0,0.2,0
			C344.2,240,345.8,241.5,345.9,243.5C345.9,243.5,345.9,243.5,345.9,243.5z"/>
		<ellipse class="st1" cx="157.8" cy="243.5" rx="3.6" ry="3.4"/>
	</g>
	<g>
		<g>
			<g>
				<line class="st1" x1="316.5" y1="190.6" x2="267.4" y2="190.6"/>
				<line class="st1" x1="316.5" y1="208.2" x2="276.1" y2="208.2"/>
			</g>
			<g>
				<g>
					<line class="st1" x1="233.7" y1="190.6" x2="184.7" y2="190.6"/>
					<line class="st1" x1="225.1" y1="208.2" x2="184.7" y2="208.2"/>
				</g>
			</g>
		</g>
	</g>
	<g>
		<path class="st8" d="M262.5,192.6c-0.9-14.2-3-26-5.9-33.1h-12.2c-2.8,7-5,18.6-6,32.5c-0.3,4.7-2.2,9.1-5.4,12.5
			c-3.1,3.2-4.9,7.5-4.9,12l-0.4,69.7c0,3.7,3,6.8,6.7,6.8c0,0,0,0,0,0l30.7,0.2c3.7,0,6.8-3,6.8-6.7l0.4-69.7
			c0-4.4-1.6-8.6-4.5-11.8C264.7,201.6,262.8,197.2,262.5,192.6z"/>
		<path class="st8" d="M241.4,289.1c-3.7,0-6.7-3.1-6.7-6.8c0,0,0,0,0,0l0.4-65.7c0-4.5,1.8-8.8,4.9-12c3.2-3.4,5.1-7.9,5.4-12.6
			c1-14,0.7-25.6,3.5-32.5h11.2l0,0h-12.2c-2.8,7-5,18.6-6,32.5c-0.3,4.7-2.2,9.1-5.4,12.6c-3.1,3.2-4.8,7.5-4.9,12l-0.4,65.7
			c0,3.7,3,6.8,6.7,6.8"/>
		<path class="st8" d="M257.7,161.3l-14.1-0.1c-1,0-1.8-0.8-1.8-1.8c0,0,0,0,0,0l0,0c0-1,0.8-1.8,1.8-1.8c0,0,0,0,0,0h14.1
			c1,0,1.8,0.8,1.8,1.8c0,0,0,0,0,0l0,0C259.5,160.5,258.7,161.3,257.7,161.3C257.7,161.3,257.7,161.3,257.7,161.3z"/>
		
			<rect x="247.9" y="149.7" transform="matrix(3.839736e-03 -1 1 3.839736e-03 92.2888 407.4061)" class="st8" width="5.5" height="15.3"/>
		<path class="st8" d="M257.8,156.5h-14.4c-0.7,0-1.3-0.6-1.3-1.3v-0.8c0-1.8,1.4-3.2,3.2-3.2h10.5c1.8,0,3.2,1.4,3.2,3.2v0.8
			C259.1,155.9,258.5,156.5,257.8,156.5C257.8,156.5,257.8,156.5,257.8,156.5z"/>
	</g>
	<text transform="matrix(1 0 0 1 274.2339 249.0798)" class="st1 st2 st3 st4">BEERS</text>
</g>
</svg>
